
		<svg xmlns="http://www.w3.org/2000/svg" xmlns:xlink="http://www.w3.org/1999/xlink" version="1.1" width="3230.769230769231" height="2192.3076923076924">
			
			<g transform="scale(11.538461538461538) translate(10, 10)">
				<defs xmlns="http://www.w3.org/2000/svg" id="SvgjsDefs2683"/><g xmlns="http://www.w3.org/2000/svg" id="SvgjsG2684" fill="#fff" featureKey="root"/><g xmlns="http://www.w3.org/2000/svg" id="SvgjsG2685" fill="#fff" transform="matrix(1.65798, 0, 0, 1.65798, -41.5168, 1.97757)" featureKey="symbol1"><g id="SvgjsG2686"><path fill="#ffffff" d="M 69.87 88.991 l 0.081 0.432 h 3.341 L 61.598 26.196 l -3.341 1.074 l 0.354 1.884 l -2.056 4.316 l -2.475 -3.17 v -1.582 l -1.671 0.305 h -0.477 l -1.194 -0.217 v 1.058 l -2.81 3.602 l -2.146 -4.461 l 0.326 -1.735 l -3.341 -1.074 L 31.072 89.423 h 3.341 l 0.061 -0.324 l 0.081 0.109 l 8.371 -5.926 l 7.666 8.935 l 0.146 -0.125 v 3.178 h 3.341 V 91.78 l 7.53 -8.776 L 69.87 88.991 Z M 62.7 81.732 l 4.76 -5.547 l 1.96 10.418 L 62.7 81.732 Z M 43.277 42.314 l 4.287 -5.497 l 3.173 6.595 v 1.407 l -0.103 -0.103 l -4.217 4.217 l -3.471 -4.865 L 43.277 42.314 Z M 60.983 41.764 l 0.424 2.256 l -3.392 4.754 l -3.937 -3.937 v -2.288 l 2.822 -5.922 l 4.038 5.172 L 60.983 41.764 Z M 63.912 57.957 l -4.568 6.351 l -5.266 -4.481 v -2.66 l 4.151 -5.818 l 5.614 5.614 l 0.206 1.092 L 63.912 57.957 Z M 64.433 60.096 l 1.914 10.17 l -5.724 -4.871 L 64.433 60.096 Z M 54.079 47.198 l 2.953 2.954 l -2.953 4.139 V 47.198 Z M 50.738 54.989 l -3.336 -4.676 l 3.336 -3.337 V 54.989 Z M 50.738 71.771 l -4.655 -5.954 l 4.655 -3.961 V 71.771 Z M 54.079 62.022 l 4.287 3.648 l -4.287 5.961 V 62.022 Z M 59.213 49.97 l 2.623 -3.676 l 1.46 7.759 L 59.213 49.97 Z M 45.221 50.131 l -4.206 4.207 l 1.504 -7.994 L 45.221 50.131 Z M 40.467 57.247 l 5.737 -5.737 l 4.533 6.354 v 1.908 l -0.054 -0.063 L 45.053 64.5 l -4.796 -6.134 L 40.467 57.247 Z M 43.672 65.675 l -5.704 4.853 l 1.842 -9.792 L 43.672 65.675 Z M 37.477 73.14 l 7.225 -6.148 l 6.036 7.719 v 0.883 l -7.593 5.376 l -5.856 -6.827 L 37.477 73.14 Z M 54.079 74.494 l 5.564 -7.737 l 7.195 6.121 l 0.226 1.202 l -5.721 6.669 l -7.264 -5.264 V 74.494 Z M 59.135 31.939 l 1.198 6.369 l -2.629 -3.367 L 59.135 31.939 Z M 55.752 35.155 l -1.672 3.51 v -5.652 L 55.752 35.155 Z M 50.738 32.75 v 6.557 l -1.951 -4.056 L 50.738 32.75 Z M 46.706 35.033 l -2.713 3.478 l 1.233 -6.554 L 46.706 35.033 Z M 34.906 86.803 l 1.986 -10.554 l 4.883 5.691 L 34.906 86.803 Z M 44.295 82.312 l 6.442 -4.561 v 12.071 L 44.295 82.312 Z M 54.079 89.216 V 77.548 l 6.172 4.473 L 54.079 89.216 Z"/><g><polygon fill="#ffffff" points="52.408,28.59 61.598,25.664 61.598,22.314 52.408,24.751"/><polygon fill="#ffffff" points="42.743,25.664 51.931,28.59 51.931,24.751 42.743,22.314"/><path fill="#ffffff" d="M 46.089 15.829 c -3.904 -2.237 -7.375 -1.184 -8.15 0.962 c -0.851 2.357 0.439 4.376 2.949 4.523 c 2.51 0.147 3.631 -1.07 5.395 -0.873 c 0.412 0.046 0.79 0.187 1.134 0.369 l -4.039 1.35 l 1.476 0.373 l 3.385 -1.158 c 0.638 0.543 1.025 1.116 1.025 1.116 s 0.098 -0.604 0.027 -1.476 l 2.64 -0.903 v -0.811 l -2.75 0.919 C 48.913 18.793 48.148 17.008 46.089 15.829 Z"/><path fill="#ffffff" d="M 63.342 13.685 c -1.546 -1.932 -5.476 -1.8 -8.701 1.859 c -1.162 1.318 -1.602 2.716 -1.697 3.968 l -0.643 -0.211 v 0.853 l 0.626 0.214 c 0.078 1.801 0.781 3.124 0.781 3.124 s 0.367 -1.388 1.337 -2.398 l 4.204 1.439 l 1.683 -0.4 l -5.078 -1.666 c 0.068 -0.038 0.126 -0.088 0.197 -0.122 c 1.743 -0.818 3.318 0.04 5.843 -0.988 C 64.42 18.331 65.039 15.807 63.342 13.685 Z"/></g><path fill="#ffffff" d="M 51.352 18.537 c 0 0 -4.375 -2.129 -3.908 -6.983 c 0.467 -4.856 3.572 -7.266 5.958 -6.609 c 2.619 0.722 3.597 3.13 2.155 5.443 c -1.443 2.312 -3.222 2.543 -4.152 4.228 C 50.473 16.301 51.352 18.537 51.352 18.537 Z"/></g></g><g xmlns="http://www.w3.org/2000/svg" id="SvgjsG2687" fill="#fff" transform="matrix(1.32735, 0, 0, 1.32735, 99.0178, 53.744)" featureKey="text1"><path d="M 4.16 22.26 q 0.96 0 1.4 -0.23 t 0.44 -0.79 q 0 -0.52 -0.47 -0.86 t -1.55 -0.74 q -0.66 -0.24 -1.21 -0.51 t -0.95 -0.63 t -0.63 -0.87 t -0.23 -1.25 q 0 -1.44 1.06 -2.27 t 2.88 -0.83 q 0.92 0 1.76 0.17 t 1.26 0.33 l -0.44 1.96 q -0.4 -0.18 -1.02 -0.33 t -1.44 -0.15 q -0.74 0 -1.2 0.25 t -0.46 0.77 q 0 0.26 0.09 0.46 t 0.31 0.37 t 0.58 0.34 t 0.88 0.35 q 0.86 0.32 1.46 0.63 t 0.99 0.7 t 0.57 0.89 t 0.18 1.2 q 0 1.5 -1.11 2.27 t -3.17 0.77 q -1.38 0 -2.22 -0.23 t -1.18 -0.37 l 0.42 -2.02 q 0.54 0.22 1.29 0.42 t 1.71 0.2 Z M 10.68 24 l 0 -15.12 l 2.42 -0.4 l 0 5.18 q 0.4 -0.14 0.93 -0.24 t 1.05 -0.1 q 1.26 0 2.09 0.35 t 1.33 0.98 t 0.71 1.51 t 0.21 1.96 l 0 5.88 l -2.42 0 l 0 -5.5 q 0 -0.84 -0.11 -1.43 t -0.36 -0.96 t -0.67 -0.54 t -1.04 -0.17 q -0.48 0 -0.98 0.1 t -0.74 0.18 l 0 8.32 l -2.42 0 Z M 26 22.3 q 1.12 0 1.7 -0.12 l 0 -2.68 q -0.2 -0.06 -0.58 -0.12 t -0.84 -0.06 q -0.4 0 -0.81 0.06 t -0.74 0.22 t -0.53 0.45 t -0.2 0.73 q 0 0.86 0.54 1.19 t 1.46 0.33 Z M 25.8 13.28 q 1.2 0 2.02 0.3 t 1.31 0.84 t 0.7 1.31 t 0.21 1.69 l 0 6.34 q -0.56 0.12 -1.69 0.29 t -2.55 0.17 q -0.94 0 -1.72 -0.18 t -1.33 -0.58 t -0.86 -1.04 t -0.31 -1.58 q 0 -0.9 0.35 -1.52 t 0.95 -1.01 t 1.39 -0.56 t 1.65 -0.17 q 0.4 0 0.84 0.05 t 0.94 0.17 l 0 -0.4 q 0 -0.42 -0.1 -0.8 t -0.35 -0.67 t -0.66 -0.45 t -1.03 -0.16 q -0.84 0 -1.54 0.12 t -1.14 0.28 l -0.3 -1.96 q 0.46 -0.16 1.34 -0.32 t 1.88 -0.16 Z M 36.64 24.2 q -1.08 -0.02 -1.79 -0.24 t -1.13 -0.63 t -0.59 -1.02 t -0.17 -1.39 l 0 -12.04 l 2.42 -0.4 l 0 11.98 q 0 0.44 0.07 0.74 t 0.25 0.51 t 0.49 0.32 t 0.79 0.17 Z M 38.36 18.82 q 0 -1.38 0.41 -2.42 t 1.09 -1.73 t 1.56 -1.04 t 1.8 -0.35 q 2.16 0 3.37 1.34 t 1.21 4 q 0 0.2 -0.01 0.45 t -0.03 0.45 l -6.9 0 q 0.1 1.26 0.89 1.95 t 2.29 0.69 q 0.88 0 1.61 -0.16 t 1.15 -0.34 l 0.32 1.98 q -0.2 0.1 -0.55 0.21 t -0.8 0.2 t -0.97 0.15 t -1.06 0.06 q -1.38 0 -2.4 -0.41 t -1.68 -1.14 t -0.98 -1.72 t -0.32 -2.17 Z M 45.38 17.74 q 0 -0.5 -0.14 -0.95 t -0.41 -0.78 t -0.66 -0.52 t -0.93 -0.19 q -0.56 0 -0.98 0.21 t -0.71 0.55 t -0.45 0.78 t -0.22 0.9 l 4.5 0 Z M 50.48 10.14 l 2.52 0 l 0 13.86 l -2.52 0 l 0 -13.86 Z M 56.2 13.88 q 0.7 -0.2 1.82 -0.38 t 2.48 -0.18 q 1.28 0 2.14 0.35 t 1.37 0.98 t 0.72 1.52 t 0.21 1.95 l 0 5.88 l -2.42 0 l 0 -5.5 q 0 -0.84 -0.11 -1.43 t -0.36 -0.96 t -0.68 -0.54 t -1.05 -0.17 q -0.46 0 -0.96 0.06 t -0.74 0.1 l 0 8.44 l -2.42 0 l 0 -10.12 Z M 70.52 22.26 q 0.96 0 1.4 -0.23 t 0.44 -0.79 q 0 -0.52 -0.47 -0.86 t -1.55 -0.74 q -0.66 -0.24 -1.21 -0.51 t -0.95 -0.63 t -0.63 -0.87 t -0.23 -1.25 q 0 -1.44 1.06 -2.27 t 2.88 -0.83 q 0.92 0 1.76 0.17 t 1.26 0.33 l -0.44 1.96 q -0.4 -0.18 -1.02 -0.33 t -1.44 -0.15 q -0.74 0 -1.2 0.25 t -0.46 0.77 q 0 0.26 0.09 0.46 t 0.31 0.37 t 0.58 0.34 t 0.88 0.35 q 0.86 0.32 1.46 0.63 t 0.99 0.7 t 0.57 0.89 t 0.18 1.2 q 0 1.5 -1.11 2.27 t -3.17 0.77 q -1.38 0 -2.22 -0.23 t -1.18 -0.37 l 0.42 -2.02 q 0.54 0.22 1.29 0.42 t 1.71 0.2 Z M 79.48 24 l -2.42 0 l 0 -10.46 l 2.42 0 l 0 10.46 Z M 79.74 10.48 q 0 0.68 -0.44 1.08 t -1.04 0.4 q -0.62 0 -1.06 -0.4 t -0.44 -1.08 q 0 -0.7 0.44 -1.1 t 1.06 -0.4 q 0.6 0 1.04 0.4 t 0.44 1.1 Z M 84.46 18.5 q 0 1.54 0.67 2.25 t 1.73 0.71 q 0.58 0 1.09 -0.16 t 0.83 -0.38 l 0 -5.42 q -0.26 -0.06 -0.64 -0.11 t -0.96 -0.05 q -1.32 0 -2.02 0.87 t -0.7 2.29 Z M 91.2 22.94 q 0 2.5 -1.27 3.66 t -3.89 1.16 q -0.96 0 -1.87 -0.16 t -1.65 -0.42 l 0.44 -2.06 q 0.62 0.26 1.41 0.42 t 1.71 0.16 q 1.46 0 2.08 -0.6 t 0.62 -1.78 l 0 -0.4 q -0.36 0.18 -0.95 0.36 t -1.35 0.18 q -1 0 -1.83 -0.32 t -1.42 -0.94 t -0.92 -1.55 t -0.33 -2.15 q 0 -1.14 0.35 -2.1 t 1.02 -1.64 t 1.63 -1.06 t 2.18 -0.38 q 1.18 0 2.24 0.18 t 1.8 0.38 l 0 9.06 Z M 94.28 24 l 0 -15.12 l 2.42 -0.4 l 0 5.18 q 0.4 -0.14 0.93 -0.24 t 1.05 -0.1 q 1.26 0 2.09 0.35 t 1.33 0.98 t 0.71 1.51 t 0.21 1.96 l 0 5.88 l -2.42 0 l 0 -5.5 q 0 -0.84 -0.11 -1.43 t -0.36 -0.96 t -0.67 -0.54 t -1.04 -0.17 q -0.48 0 -0.98 0.1 t -0.74 0.18 l 0 8.32 l -2.42 0 Z M 105.8 10.78 l 2.42 -0.4 l 0 3.16 l 3.72 0 l 0 2.02 l -3.72 0 l 0 4.26 q 0 1.26 0.4 1.8 t 1.36 0.54 q 0.66 0 1.17 -0.14 t 0.81 -0.26 l 0.4 1.92 q -0.42 0.18 -1.1 0.37 t -1.6 0.19 q -1.12 0 -1.87 -0.3 t -1.19 -0.87 t -0.62 -1.38 t -0.18 -1.85 l 0 -9.06 Z M 116.9 22.26 q 0.96 0 1.4 -0.23 t 0.44 -0.79 q 0 -0.52 -0.47 -0.86 t -1.55 -0.74 q -0.66 -0.24 -1.21 -0.51 t -0.95 -0.63 t -0.63 -0.87 t -0.23 -1.25 q 0 -1.44 1.06 -2.27 t 2.88 -0.83 q 0.92 0 1.76 0.17 t 1.26 0.33 l -0.44 1.96 q -0.4 -0.18 -1.02 -0.33 t -1.44 -0.15 q -0.74 0 -1.2 0.25 t -0.46 0.77 q 0 0.26 0.09 0.46 t 0.31 0.37 t 0.58 0.34 t 0.88 0.35 q 0.86 0.32 1.46 0.63 t 0.99 0.7 t 0.57 0.89 t 0.18 1.2 q 0 1.5 -1.11 2.27 t -3.17 0.77 q -1.38 0 -2.22 -0.23 t -1.18 -0.37 l 0.42 -2.02 q 0.54 0.22 1.29 0.42 t 1.71 0.2 Z"/></g><g xmlns="http://www.w3.org/2000/svg" id="SvgjsG2688" fill="#fff" transform="matrix(0.309326, 0, 0, 0.309326, 99.437, 102.876)" featureKey="text3"><path d="M 11.52 10.34 l 0 9 q 0 1.2 -0.35 2.11 t -0.98 1.53 t -1.53 0.94 t -2 0.32 t -2 -0.32 t -1.53 -0.94 t -0.97 -1.53 t -0.34 -2.11 l 0 -8.94 l 0.12 -0.12 l 0.6 0 q 0.48 0 0.64 0.23 t 0.16 0.77 l 0 8.04 q 0 1.76 0.87 2.71 t 2.45 0.95 t 2.45 -0.93 t 0.87 -2.73 l 0 -8.98 q 0.3 -0.06 0.76 -0.06 q 0.44 0 0.78 0.06 Z M 14.1 22.74 q 0.06 -0.74 0.7 -1.22 q 2.04 1.38 4 1.38 q 1.42 0 2.24 -0.6 t 0.82 -1.64 q 0 -1.54 -2.12 -2.48 l -2.34 -1.02 q -2.7 -1.16 -2.7 -3.36 q 0 -0.76 0.32 -1.44 t 0.89 -1.18 t 1.37 -0.79 t 1.78 -0.29 q 1.94 0 3.96 0.96 q 0 0.78 -0.62 1.28 q -0.98 -0.5 -1.81 -0.72 t -1.53 -0.22 q -0.64 0 -1.15 0.18 t -0.88 0.47 t -0.57 0.68 t -0.2 0.81 q 0 0.88 0.51 1.37 t 1.43 0.87 l 2.26 0.98 q 2.98 1.3 2.98 3.62 q 0 1.74 -1.18 2.8 t -3.66 1.06 q -2.44 0 -4.5 -1.5 Z M 26.48 24 l 0 -13.66 q 0.28 -0.06 0.73 -0.06 t 0.79 0.06 l 0 13.66 q -0.34 0.06 -0.79 0.06 t -0.73 -0.06 Z M 41.4 10.28 l 0.12 0.1 l 0 13.62 q -0.38 0.06 -0.94 0.06 t -0.96 -0.06 l -4.86 -9.06 q -0.6 -1.12 -1.36 -2.76 l -0.06 0 q 0.12 3.72 0.12 4.32 l 0 7.5 q -0.42 0.06 -0.74 0.06 t -0.68 -0.06 l 0 -13.66 q 0.36 -0.06 0.91 -0.06 t 0.95 0.06 l 4.86 9.06 q 0.48 0.86 1.4 2.82 l 0.06 0 q -0.14 -2.56 -0.14 -4.56 l 0 -6.38 q 0 -0.54 0.16 -0.77 t 0.64 -0.23 l 0.52 0 Z M 50.58 17.12 l 3.04 0 q 0.64 0 0.92 0.25 t 0.28 0.81 l 0 5.18 q -2.14 0.88 -4.76 0.88 q -1.48 0 -2.58 -0.59 t -1.7 -1.61 q -1.16 -2 -1.16 -4.78 q 0 -1.88 0.49 -3.3 t 1.31 -2.24 q 1.62 -1.62 3.88 -1.62 q 1.22 0 2.44 0.4 t 2.06 1.1 q -0.16 0.74 -0.82 1.18 q -1.62 -1.3 -3.78 -1.3 q -1.72 0 -2.84 1.38 t -1.12 4.42 q 0 5.62 4.1 5.62 q 1.6 0 2.98 -0.46 l 0 -2.72 q 0 -0.88 0.02 -1.22 l -2.18 0 q -0.7 0 -0.7 -0.72 q 0 -0.26 0.12 -0.66 Z M 69.24 20.44 l -1.4 0.02 l -2.68 0 l -1.4 -0.02 l -1.16 3.58 q -0.26 0.06 -0.64 0.06 t -0.78 -0.1 l -0.04 -0.06 l 4.58 -13.58 q 0.34 -0.06 0.9 -0.06 t 0.82 0.06 l 4.58 13.58 q -0.32 0.2 -0.8 0.2 t -0.68 -0.16 t -0.34 -0.64 Z M 64.2 19.14 l 1.16 -0.02 l 2.3 0 q 0.02 0 0.49 0.01 t 0.67 0.01 l -1.26 -3.8 q -0.76 -2.34 -1.02 -3.34 l -0.1 0 q -0.38 1.48 -0.68 2.38 Z M 83.88 10.28 l 0.12 0.1 l 0 13.62 q -0.38 0.06 -0.94 0.06 t -0.96 -0.06 l -4.86 -9.06 q -0.6 -1.12 -1.36 -2.76 l -0.06 0 q 0.12 3.72 0.12 4.32 l 0 7.5 q -0.42 0.06 -0.74 0.06 t -0.68 -0.06 l 0 -13.66 q 0.36 -0.06 0.91 -0.06 t 0.95 0.06 l 4.86 9.06 q 0.48 0.86 1.4 2.82 l 0.06 0 q -0.14 -2.56 -0.14 -4.56 l 0 -6.38 q 0 -0.54 0.16 -0.77 t 0.64 -0.23 l 0.52 0 Z M 94.58 20.44 l -1.4 0.02 l -2.68 0 l -1.4 -0.02 l -1.16 3.58 q -0.26 0.06 -0.64 0.06 t -0.78 -0.1 l -0.04 -0.06 l 4.58 -13.58 q 0.34 -0.06 0.9 -0.06 t 0.82 0.06 l 4.58 13.58 q -0.32 0.2 -0.8 0.2 t -0.68 -0.16 t -0.34 -0.64 Z M 89.54 19.14 l 1.16 -0.02 l 2.3 0 q 0.02 0 0.49 0.01 t 0.67 0.01 l -1.26 -3.8 q -0.76 -2.34 -1.02 -3.34 l -0.1 0 q -0.38 1.48 -0.68 2.38 Z M 103.12 22.64 l 4.26 0 q 0 0.44 -0.06 0.66 q -0.12 0.7 -0.98 0.7 l -5.6 0 q -0.38 0 -0.63 -0.27 t -0.25 -0.75 l 0 -12.58 l 0.12 -0.12 l 0.6 0 q 0.48 0 0.64 0.23 t 0.16 0.77 l 0 11.42 q 0.9 -0.06 1.74 -0.06 Z M 113.8 15.58 l 2.08 -5.24 q 0.16 -0.04 0.33 -0.06 t 0.35 -0.02 q 0.34 0 0.74 0.1 l 0.06 0.12 l -3.76 9.08 l 0 4.44 q -0.34 0.06 -0.78 0.06 q -0.46 0 -0.76 -0.06 l 0 -4.5 l -3.76 -8.98 q 0.24 -0.14 0.48 -0.23 t 0.46 -0.09 q 0.28 0 0.51 0.17 t 0.39 0.57 l 1.92 4.64 q 0.14 0.34 0.35 0.9 t 0.47 1.4 l 0.1 0 q 0.04 -0.18 0.25 -0.75 t 0.57 -1.55 Z M 124.32 11.66 l -1.1 -0.02 l 0 12.36 q -0.32 0.06 -0.76 0.06 t -0.78 -0.06 l 0 -12.36 l -1.08 0.02 l -2.56 0 q -0.06 -0.34 -0.06 -0.65 t 0.06 -0.67 l 8.8 0 q 0.12 0.26 0.12 0.64 q 0 0.68 -0.94 0.68 l -1.7 0 Z M 129.34 24 l 0 -13.66 q 0.28 -0.06 0.73 -0.06 t 0.79 0.06 l 0 13.66 q -0.34 0.06 -0.79 0.06 t -0.73 -0.06 Z M 142.44 14.66 q 0 -0.6 -0.17 -1.19 t -0.56 -1.06 t -1 -0.75 t -1.47 -0.28 q -1.7 0 -2.63 1.5 t -0.93 4.26 q 0 2.78 0.96 4.27 t 2.72 1.49 q 1.78 0 3.6 -1.58 q 0.62 0.36 0.84 1 q -0.84 0.86 -2.07 1.39 t -2.61 0.53 q -1.34 0 -2.3 -0.55 t -1.57 -1.51 t -0.9 -2.23 t -0.29 -2.71 q 0 -1.78 0.4 -3.12 t 1.1 -2.23 t 1.64 -1.34 t 2.02 -0.45 t 1.96 0.32 t 1.5 0.84 t 0.96 1.2 t 0.34 1.4 q 0 0.9 -0.86 0.9 q -0.28 0 -0.68 -0.1 Z M 145.7 22.74 q 0.06 -0.74 0.7 -1.22 q 2.04 1.38 4 1.38 q 1.42 0 2.24 -0.6 t 0.82 -1.64 q 0 -1.54 -2.12 -2.48 l -2.34 -1.02 q -2.7 -1.16 -2.7 -3.36 q 0 -0.76 0.32 -1.44 t 0.89 -1.18 t 1.37 -0.79 t 1.78 -0.29 q 1.94 0 3.96 0.96 q 0 0.78 -0.62 1.28 q -0.98 -0.5 -1.81 -0.72 t -1.53 -0.22 q -0.64 0 -1.15 0.18 t -0.88 0.47 t -0.57 0.68 t -0.2 0.81 q 0 0.88 0.51 1.37 t 1.43 0.87 l 2.26 0.98 q 2.98 1.3 2.98 3.62 q 0 1.74 -1.18 2.8 t -3.66 1.06 q -2.44 0 -4.5 -1.5 Z M 162.48 24 l 0 -13.66 q 0.28 -0.06 0.73 -0.06 t 0.79 0.06 l 0 13.66 q -0.34 0.06 -0.79 0.06 t -0.73 -0.06 Z M 177.4 10.28 l 0.12 0.1 l 0 13.62 q -0.38 0.06 -0.94 0.06 t -0.96 -0.06 l -4.86 -9.06 q -0.6 -1.12 -1.36 -2.76 l -0.06 0 q 0.12 3.72 0.12 4.32 l 0 7.5 q -0.42 0.06 -0.74 0.06 t -0.68 -0.06 l 0 -13.66 q 0.36 -0.06 0.91 -0.06 t 0.95 0.06 l 4.86 9.06 q 0.48 0.86 1.4 2.82 l 0.06 0 q -0.14 -2.56 -0.14 -4.56 l 0 -6.38 q 0 -0.54 0.16 -0.77 t 0.64 -0.23 l 0.52 0 Z M 195.4 10.34 l 0 9 q 0 1.2 -0.35 2.11 t -0.98 1.53 t -1.53 0.94 t -2 0.32 t -2 -0.32 t -1.53 -0.94 t -0.97 -1.53 t -0.34 -2.11 l 0 -8.94 l 0.12 -0.12 l 0.6 0 q 0.48 0 0.64 0.23 t 0.16 0.77 l 0 8.04 q 0 1.76 0.87 2.71 t 2.45 0.95 t 2.45 -0.93 t 0.87 -2.73 l 0 -8.98 q 0.3 -0.06 0.76 -0.06 q 0.44 0 0.78 0.06 Z M 208.54 10.28 l 0.12 0.1 l 0 13.62 q -0.38 0.06 -0.94 0.06 t -0.96 -0.06 l -4.86 -9.06 q -0.6 -1.12 -1.36 -2.76 l -0.06 0 q 0.12 3.72 0.12 4.32 l 0 7.5 q -0.42 0.06 -0.74 0.06 t -0.68 -0.06 l 0 -13.66 q 0.36 -0.06 0.91 -0.06 t 0.95 0.06 l 4.86 9.06 q 0.48 0.86 1.4 2.82 l 0.06 0 q -0.14 -2.56 -0.14 -4.56 l 0 -6.38 q 0 -0.54 0.16 -0.77 t 0.64 -0.23 l 0.52 0 Z M 220.14 14.66 q 0 -0.6 -0.17 -1.19 t -0.56 -1.06 t -1 -0.75 t -1.47 -0.28 q -1.7 0 -2.63 1.5 t -0.93 4.26 q 0 2.78 0.96 4.27 t 2.72 1.49 q 1.78 0 3.6 -1.58 q 0.62 0.36 0.84 1 q -0.84 0.86 -2.07 1.39 t -2.61 0.53 q -1.34 0 -2.3 -0.55 t -1.57 -1.51 t -0.9 -2.23 t -0.29 -2.71 q 0 -1.78 0.4 -3.12 t 1.1 -2.23 t 1.64 -1.34 t 2.02 -0.45 t 1.96 0.32 t 1.5 0.84 t 0.96 1.2 t 0.34 1.4 q 0 0.9 -0.86 0.9 q -0.28 0 -0.68 -0.1 Z M 225.54 15.14 q -0.1 0.48 -0.13 0.99 t -0.03 1.03 q 0 0.9 0.14 1.91 t 0.54 1.88 t 1.14 1.44 t 1.94 0.57 q 0.8 0 1.4 -0.28 t 1.02 -0.73 t 0.67 -1.05 t 0.4 -1.25 t 0.21 -1.29 t 0.06 -1.2 q 0 -0.88 -0.14 -1.9 t -0.55 -1.88 t -1.14 -1.43 t -1.93 -0.57 q -0.9 0 -1.54 0.33 t -1.05 0.86 t -0.64 1.2 t -0.37 1.37 Z M 225.88 23.08 q -2.12 -1.88 -2.12 -5.9 q 0 -1.58 0.35 -2.89 t 1.03 -2.24 t 1.69 -1.44 t 2.31 -0.51 q 1.38 0 2.4 0.57 t 1.69 1.54 t 0.99 2.25 t 0.32 2.7 q 0 1.58 -0.35 2.89 t -1.03 2.24 t -1.69 1.44 t -2.33 0.51 q -1.98 0 -3.26 -1.16 Z M 247.02 10.28 l 0.12 0.1 l 0 13.62 q -0.38 0.06 -0.94 0.06 t -0.96 -0.06 l -4.86 -9.06 q -0.6 -1.12 -1.36 -2.76 l -0.06 0 q 0.12 3.72 0.12 4.32 l 0 7.5 q -0.42 0.06 -0.74 0.06 t -0.68 -0.06 l 0 -13.66 q 0.36 -0.06 0.91 -0.06 t 0.95 0.06 l 4.86 9.06 q 0.48 0.86 1.4 2.82 l 0.06 0 q -0.14 -2.56 -0.14 -4.56 l 0 -6.38 q 0 -0.54 0.16 -0.77 t 0.64 -0.23 l 0.52 0 Z M 254.9 22.52 l 3.48 -12.18 q 0.28 -0.06 0.66 -0.06 t 0.7 0.08 l 0.08 0.12 l -4.08 13.54 q -0.6 0.06 -1.09 0.06 t -0.74 -0.15 t -0.41 -0.65 l -3.86 -12.82 q 0.52 -0.24 0.96 -0.24 q 0.64 0 0.84 0.74 l 2.38 8.06 q 0.32 1.06 0.92 3.32 q 0.04 0.18 0.16 0.18 Z M 263.7 21.94 l -0.02 0.76 q 0.68 -0.04 1.24 -0.04 l 5.48 0 q 0 0.42 -0.04 0.64 q -0.14 0.7 -0.98 0.7 l -6.3 0 q -0.4 0 -0.63 -0.27 t -0.23 -0.73 l 0 -12.54 l 0.12 -0.12 l 7.72 0 q 0.04 0.24 0.04 0.63 t -0.1 0.69 l -6.32 0 l 0.02 1.24 l 0 3.54 l 1.2 -0.02 l 4.14 0 q 0.06 0.36 0.06 0.67 t -0.06 0.65 l -4.14 0 q -0.76 0 -1.2 -0.02 l 0 4.22 Z M 282.84 10.28 l 0.12 0.1 l 0 13.62 q -0.38 0.06 -0.94 0.06 t -0.96 -0.06 l -4.86 -9.06 q -0.6 -1.12 -1.36 -2.76 l -0.06 0 q 0.12 3.72 0.12 4.32 l 0 7.5 q -0.42 0.06 -0.74 0.06 t -0.68 -0.06 l 0 -13.66 q 0.36 -0.06 0.91 -0.06 t 0.95 0.06 l 4.86 9.06 q 0.48 0.86 1.4 2.82 l 0.06 0 q -0.14 -2.56 -0.14 -4.56 l 0 -6.38 q 0 -0.54 0.16 -0.77 t 0.64 -0.23 l 0.52 0 Z M 291.62 11.66 l -1.1 -0.02 l 0 12.36 q -0.32 0.06 -0.76 0.06 t -0.78 -0.06 l 0 -12.36 l -1.08 0.02 l -2.56 0 q -0.06 -0.34 -0.06 -0.65 t 0.06 -0.67 l 8.8 0 q 0.12 0.26 0.12 0.64 q 0 0.68 -0.94 0.68 l -1.7 0 Z M 296.64 24 l 0 -13.66 q 0.28 -0.06 0.73 -0.06 t 0.79 0.06 l 0 13.66 q -0.34 0.06 -0.79 0.06 t -0.73 -0.06 Z M 303.14 15.14 q -0.1 0.48 -0.13 0.99 t -0.03 1.03 q 0 0.9 0.14 1.91 t 0.54 1.88 t 1.14 1.44 t 1.94 0.57 q 0.8 0 1.4 -0.28 t 1.02 -0.73 t 0.67 -1.05 t 0.4 -1.25 t 0.21 -1.29 t 0.06 -1.2 q 0 -0.88 -0.14 -1.9 t -0.55 -1.88 t -1.14 -1.43 t -1.93 -0.57 q -0.9 0 -1.54 0.33 t -1.05 0.86 t -0.64 1.2 t -0.37 1.37 Z M 303.48 23.08 q -2.12 -1.88 -2.12 -5.9 q 0 -1.58 0.35 -2.89 t 1.03 -2.24 t 1.69 -1.44 t 2.31 -0.51 q 1.38 0 2.4 0.57 t 1.69 1.54 t 0.99 2.25 t 0.32 2.7 q 0 1.58 -0.35 2.89 t -1.03 2.24 t -1.69 1.44 t -2.33 0.51 q -1.98 0 -3.26 -1.16 Z M 324.62 10.28 l 0.12 0.1 l 0 13.62 q -0.38 0.06 -0.94 0.06 t -0.96 -0.06 l -4.86 -9.06 q -0.6 -1.12 -1.36 -2.76 l -0.06 0 q 0.12 3.72 0.12 4.32 l 0 7.5 q -0.42 0.06 -0.74 0.06 t -0.68 -0.06 l 0 -13.66 q 0.36 -0.06 0.91 -0.06 t 0.95 0.06 l 4.86 9.06 q 0.48 0.86 1.4 2.82 l 0.06 0 q -0.14 -2.56 -0.14 -4.56 l 0 -6.38 q 0 -0.54 0.16 -0.77 t 0.64 -0.23 l 0.52 0 Z M 335.32 20.44 l -1.4 0.02 l -2.68 0 l -1.4 -0.02 l -1.16 3.58 q -0.26 0.06 -0.64 0.06 t -0.78 -0.1 l -0.04 -0.06 l 4.58 -13.58 q 0.34 -0.06 0.9 -0.06 t 0.82 0.06 l 4.58 13.58 q -0.32 0.2 -0.8 0.2 t -0.68 -0.16 t -0.34 -0.64 Z M 330.28 19.14 l 1.16 -0.02 l 2.3 0 q 0.02 0 0.49 0.01 t 0.67 0.01 l -1.26 -3.8 q -0.76 -2.34 -1.02 -3.34 l -0.1 0 q -0.38 1.48 -0.68 2.38 Z M 343.86 22.64 l 4.26 0 q 0 0.44 -0.06 0.66 q -0.12 0.7 -0.98 0.7 l -5.6 0 q -0.38 0 -0.63 -0.27 t -0.25 -0.75 l 0 -12.58 l 0.12 -0.12 l 0.6 0 q 0.48 0 0.64 0.23 t 0.16 0.77 l 0 11.42 q 0.9 -0.06 1.74 -0.06 Z M 358.94 22.52 l 3.48 -12.18 q 0.28 -0.06 0.66 -0.06 t 0.7 0.08 l 0.08 0.12 l -4.08 13.54 q -0.6 0.06 -1.09 0.06 t -0.74 -0.15 t -0.41 -0.65 l -3.86 -12.82 q 0.52 -0.24 0.96 -0.24 q 0.64 0 0.84 0.74 l 2.38 8.06 q 0.32 1.06 0.92 3.32 q 0.04 0.18 0.16 0.18 Z M 372.9 20.44 l -1.4 0.02 l -2.68 0 l -1.4 -0.02 l -1.16 3.58 q -0.26 0.06 -0.64 0.06 t -0.78 -0.1 l -0.04 -0.06 l 4.58 -13.58 q 0.34 -0.06 0.9 -0.06 t 0.82 0.06 l 4.58 13.58 q -0.32 0.2 -0.8 0.2 t -0.68 -0.16 t -0.34 -0.64 Z M 367.86 19.14 l 1.16 -0.02 l 2.3 0 q 0.02 0 0.49 0.01 t 0.67 0.01 l -1.26 -3.8 q -0.76 -2.34 -1.02 -3.34 l -0.1 0 q -0.38 1.48 -0.68 2.38 Z M 381.44 22.64 l 4.26 0 q 0 0.44 -0.06 0.66 q -0.12 0.7 -0.98 0.7 l -5.6 0 q -0.38 0 -0.63 -0.27 t -0.25 -0.75 l 0 -12.58 l 0.12 -0.12 l 0.6 0 q 0.48 0 0.64 0.23 t 0.16 0.77 l 0 11.42 q 0.9 -0.06 1.74 -0.06 Z M 397.84 10.34 l 0 9 q 0 1.2 -0.35 2.11 t -0.98 1.53 t -1.53 0.94 t -2 0.32 t -2 -0.32 t -1.53 -0.94 t -0.97 -1.53 t -0.34 -2.11 l 0 -8.94 l 0.12 -0.12 l 0.6 0 q 0.48 0 0.64 0.23 t 0.16 0.77 l 0 8.04 q 0 1.76 0.87 2.71 t 2.45 0.95 t 2.45 -0.93 t 0.87 -2.73 l 0 -8.98 q 0.3 -0.06 0.76 -0.06 q 0.44 0 0.78 0.06 Z M 408.26 20.44 l -1.4 0.02 l -2.68 0 l -1.4 -0.02 l -1.16 3.58 q -0.26 0.06 -0.64 0.06 t -0.78 -0.1 l -0.04 -0.06 l 4.58 -13.58 q 0.34 -0.06 0.9 -0.06 t 0.82 0.06 l 4.58 13.58 q -0.32 0.2 -0.8 0.2 t -0.68 -0.16 t -0.34 -0.64 Z M 403.22 19.14 l 1.16 -0.02 l 2.3 0 q 0.02 0 0.49 0.01 t 0.67 0.01 l -1.26 -3.8 q -0.76 -2.34 -1.02 -3.34 l -0.1 0 q -0.38 1.48 -0.68 2.38 Z M 418.26 11.66 l -1.1 -0.02 l 0 12.36 q -0.32 0.06 -0.76 0.06 t -0.78 -0.06 l 0 -12.36 l -1.08 0.02 l -2.56 0 q -0.06 -0.34 -0.06 -0.65 t 0.06 -0.67 l 8.8 0 q 0.12 0.26 0.12 0.64 q 0 0.68 -0.94 0.68 l -1.7 0 Z M 423.28 24 l 0 -13.66 q 0.28 -0.06 0.73 -0.06 t 0.79 0.06 l 0 13.66 q -0.34 0.06 -0.79 0.06 t -0.73 -0.06 Z M 429.78 15.14 q -0.1 0.48 -0.13 0.99 t -0.03 1.03 q 0 0.9 0.14 1.91 t 0.54 1.88 t 1.14 1.44 t 1.94 0.57 q 0.8 0 1.4 -0.28 t 1.02 -0.73 t 0.67 -1.05 t 0.4 -1.25 t 0.21 -1.29 t 0.06 -1.2 q 0 -0.88 -0.14 -1.9 t -0.55 -1.88 t -1.14 -1.43 t -1.93 -0.57 q -0.9 0 -1.54 0.33 t -1.05 0.86 t -0.64 1.2 t -0.37 1.37 Z M 430.12 23.08 q -2.12 -1.88 -2.12 -5.9 q 0 -1.58 0.35 -2.89 t 1.03 -2.24 t 1.69 -1.44 t 2.31 -0.51 q 1.38 0 2.4 0.57 t 1.69 1.54 t 0.99 2.25 t 0.32 2.7 q 0 1.58 -0.35 2.89 t -1.03 2.24 t -1.69 1.44 t -2.33 0.51 q -1.98 0 -3.26 -1.16 Z M 451.26 10.28 l 0.12 0.1 l 0 13.62 q -0.38 0.06 -0.94 0.06 t -0.96 -0.06 l -4.86 -9.06 q -0.6 -1.12 -1.36 -2.76 l -0.06 0 q 0.12 3.72 0.12 4.32 l 0 7.5 q -0.42 0.06 -0.74 0.06 t -0.68 -0.06 l 0 -13.66 q 0.36 -0.06 0.91 -0.06 t 0.95 0.06 l 4.86 9.06 q 0.48 0.86 1.4 2.82 l 0.06 0 q -0.14 -2.56 -0.14 -4.56 l 0 -6.38 q 0 -0.54 0.16 -0.77 t 0.64 -0.23 l 0.52 0 Z"/></g>
			</g>
		</svg>
	